HIERARCHY
ROOT Hips
{
	OFFSET -3.958830 18.904000 13.208200
	CHANNELS 6 Xposition Yposition Zposition Zrotation Yrotation Xrotation 
	JOINT LHipJoint
	{
		OFFSET 0.000000 0.000000 0.000000
		CHANNELS 3 Zrotation Yrotation Xrotation
		JOINT LeftUpLeg
		{
			OFFSET 1.800000 -1.400000 0.085000
			CHANNELS 3 Zrotation Yrotation Xrotation
			JOINT LeftLeg
			{
				OFFSET 2.215000 -6.000000 0.000000
				CHANNELS 3 Zrotation Yrotation Xrotation
				JOINT LeftFoot
				{
					OFFSET 2.500000 -6.900000 0.000000
					CHANNELS 3 Zrotation Yrotation Xrotation
					JOINT LeftToeBase
					{
						OFFSET 0.200000 -0.500000 1.950000
						CHANNELS 3 Zrotation Yrotation Xrotation
						End Site
						{
							OFFSET 0.000000 0.000000 0.000000
						}
					}
				}
			}
		}
	}
	JOINT RHipJoint
	{
		OFFSET 0.000000 0.000000 0.000000
		CHANNELS 3 Zrotation Yrotation Xrotation
		JOINT RightUpLeg
		{
			OFFSET -1.800000 -1.400000 0.085000
			CHANNELS 3 Zrotation Yrotation Xrotation
			JOINT RightLeg
			{
				OFFSET -2.215000 -6.000000 0.000000
				CHANNELS 3 Zrotation Yrotation Xrotation
				JOINT RightFoot
				{
					OFFSET -2.500000 -6.900000 0.000000
					CHANNELS 3 Zrotation Yrotation Xrotation
					JOINT RightToeBase
					{
						OFFSET -0.200000 -0.500000 1.950000
						CHANNELS 3 Zrotation Yrotation Xrotation
						End Site
						{
							OFFSET 0.000000 0.000000 0.000000
						}
					}
				}
			}
		}
	}
	JOINT LowerBack
	{
		OFFSET 0.000000 0.000000 0.000000
		CHANNELS 3 Zrotation Yrotation Xrotation
		JOINT Spine
		{
			OFFSET -0.087000 1.940000 -0.288900
			CHANNELS 3 Zrotation Yrotation Xrotation
			JOINT Spine1
			{
				OFFSET 0.000000 1.950000 0.060000
				CHANNELS 3 Zrotation Yrotation Xrotation
				JOINT Neck
				{
					OFFSET 0.000000 0.000000 0.000000
					CHANNELS 3 Zrotation Yrotation Xrotation
					JOINT Neck1
					{
						OFFSET 0.000000 1.600000 0.340000
						CHANNELS 3 Zrotation Yrotation Xrotation
						JOINT Head
						{
							OFFSET 0.000000 1.667000 -0.240000
							CHANNELS 3 Zrotation Yrotation Xrotation
							End Site
							{
								OFFSET 0.000000 0.000000 0.000000
							}
						}
					}
				}
				JOINT LeftShoulder
				{
					OFFSET 0.000000 0.000000 0.000000
					CHANNELS 3 Zrotation Yrotation Xrotation
					JOINT LeftArm
					{
						OFFSET 2.700000 1.550000 -0.730000
						CHANNELS 3 Zrotation Yrotation Xrotation
						JOINT LeftForeArm
						{
							OFFSET 5.450000 0.000000 0.000000
							CHANNELS 3 Zrotation Yrotation Xrotation
							JOINT LeftHand
							{
								OFFSET 3.450000 0.000000 0.000000
								CHANNELS 3 Zrotation Yrotation Xrotation
								JOINT LeftHandIndex1
								{
									OFFSET 0.750000 0.000000 0.000000
									CHANNELS 3 Zrotation Yrotation Xrotation
									End Site
									{
										OFFSET 0.000000 0.000000 0.000000
									}
								}
							}
						}
					}
				}
				JOINT RightShoulder
				{
					OFFSET 0.000000 0.000000 0.000000
					CHANNELS 3 Zrotation Yrotation Xrotation
					JOINT RightArm
					{
						OFFSET -2.700000 1.550000 -0.730000
						CHANNELS 3 Zrotation Yrotation Xrotation
						JOINT RightForeArm
						{
							OFFSET -5.450000 0.000000 0.000000
							CHANNELS 3 Zrotation Yrotation Xrotation
							JOINT RightHand
							{
								OFFSET -3.450000 0.000000 0.000000
								CHANNELS 3 Zrotation Yrotation Xrotation
								JOINT RightHandIndex1
								{
									OFFSET -0.750000 0.000000 0.000000
									CHANNELS 3 Zrotation Yrotation Xrotation
									End Site
									{
										OFFSET 0.000000 0.000000 0.000000
									}
								}
							}
						}
					}
				}
			}
		}
	}
}
MOTION
Frames: 14
Frame Time: 0.016667
5.671410 16.811980 -1.190200 -8.069943 -28.532550 -11.439593 -15.098810 13.641269 2.711675 14.642777 -1.329662 -21.058059 9.709480 8.442709 57.927592 0.793988 9.768025 0.952140 0.218840 -0.143990 0.468400 18.196870 -11.473926 2.649001 -8.650003 3.306419 -8.565635 9.803736 -14.457467 47.233767 -1.251935 -8.123876 1.648781 -0.220740 -0.179980 0.068880 -3.232927 -0.893562 -7.434829 5.417125 6.762099 10.267649 5.680530 7.591130 4.084128 1.255269 1.393238 -12.300995 -1.920893 0.982844 73.923214 0.371270 6.963160 9.241260 -6.481212 9.340849 6.271951 -60.419919 17.430893 -12.632097 -83.930116 -44.969019 32.247714 -3.155670 3.398749 0.685410 -0.132930 0.213100 -0.063770 5.230544 -7.419831 4.860238 71.239135 -13.979972 -22.506775 14.288977 29.248239 0.796541 2.346510 -0.974049 -0.112570 -0.022530 -0.053030 -0.332970 
5.737890 16.783660 -1.168460 -7.327896 -29.617070 -11.678241 -15.023037 13.292958 3.196730 16.080357 -1.725446 -23.129151 4.738984 12.248981 60.068540 0.949154 10.622290 0.674865 0.222060 -0.143470 0.473440 18.302512 -11.555172 2.376397 -8.209352 2.440212 -6.999570 6.565419 -12.499907 45.802226 -1.129612 -7.610268 1.823124 -0.215930 -0.179560 0.068700 -3.585987 -0.536716 -7.522777 8.281142 6.683493 10.460708 3.383150 7.764198 4.351317 1.696290 1.053621 -12.088939 -2.657795 1.356757 73.261119 -0.333640 7.021520 8.653060 -7.630992 9.680749 5.735871 -60.785956 16.855722 -12.372738 -84.749013 -46.456631 34.026803 -3.180066 3.392539 0.683530 -0.131990 0.209750 -0.062820 5.018984 -7.693850 5.043951 71.976239 -13.901184 -22.850378 15.460851 30.810359 1.137745 2.324879 -1.000244 -0.115770 -0.016800 -0.053260 -0.334810 
5.819280 16.755780 -1.151680 -6.634224 -30.469329 -11.615326 -14.939687 12.875193 3.732716 17.878524 -2.065692 -25.089587 -0.461456 16.098664 60.829295 1.107724 11.443319 0.415038 0.229810 -0.143430 0.478910 18.422718 -11.598710 2.137953 -8.226573 1.711923 -6.114946 3.994591 -10.896862 43.947317 -1.015404 -7.127624 1.981557 -0.212600 -0.182470 0.077620 -4.002602 -0.116711 -7.643698 11.501639 6.494223 10.714050 0.586136 7.890004 4.281306 2.186250 0.737992 -11.944421 -3.170923 1.556869 72.663817 -0.920160 6.886100 8.168060 -9.014655 9.782161 5.145851 -60.603613 16.072150 -11.750146 -85.750442 -47.839060 35.943046 -3.212559 3.395078 0.684130 -0.131470 0.206790 -0.063190 4.864978 -7.788840 5.338229 72.533731 -13.937298 -22.957707 16.921633 32.108051 1.558806 2.304756 -1.035606 -0.113270 -0.023120 -0.052300 -0.337600 
5.907760 16.722050 -1.132320 -5.786921 -31.051237 -11.399278 -14.876284 12.435789 4.259677 19.698785 -2.357557 -26.717952 -5.710557 19.734419 60.492957 1.269010 12.196512 0.198875 0.213500 -0.164720 0.469770 18.532828 -11.598600 1.912516 -8.845204 1.131441 -5.768841 2.250093 -9.820864 42.021953 -0.907523 -6.733261 2.112470 -0.216740 -0.167910 0.079590 -4.390737 0.277906 -7.746634 14.415694 6.153151 10.694427 -2.237605 7.762342 4.307552 2.702295 0.491455 -11.734185 -3.493806 1.687849 71.555856 -1.820450 6.962710 7.821690 -10.317221 9.698477 4.607262 -60.013043 15.091486 -10.872826 -87.033554 -48.966884 37.916972 -3.263704 3.383938 0.675300 -0.118780 0.191120 -0.067950 4.641796 -7.847675 5.586079 73.166498 -13.674687 -22.900237 17.863808 33.439583 1.937769 2.284633 -1.062250 -0.123260 -0.016670 -0.038360 -0.338410 
5.997470 16.692730 -1.113940 -4.863540 -31.285516 -11.176703 -14.830699 12.046461 4.706432 21.428991 -2.518810 -27.756240 -10.558902 22.836952 59.412615 1.430370 12.786635 0.051348 0.206860 -0.172530 0.461670 18.622087 -11.575663 1.721539 -9.944751 0.788133 -6.000035 1.348085 -9.325090 40.716648 -0.833153 -6.502820 2.190162 -0.218250 -0.149700 0.086940 -4.710337 0.609460 -7.835542 16.943572 5.741165 10.637383 -4.792369 7.513410 4.232405 3.179342 0.296421 -11.449308 -3.726278 1.713285 70.336041 -2.770580 7.075350 7.686070 -11.765253 9.520278 4.035105 -58.590926 13.951027 -9.536034 -89.276457 -49.611260 40.304314 -3.315030 3.391863 0.653540 -0.100500 0.175830 -0.060670 4.730198 -7.854183 5.777137 73.209067 -13.462597 -22.539374 19.121230 34.751282 2.438565 2.268586 -1.108164 -0.122540 -0.015280 -0.036560 -0.330970 
6.092240 16.666470 -1.101120 -3.848087 -31.090994 -10.955539 -14.796643 11.698613 5.083083 22.933525 -2.692001 -28.386761 -15.250568 25.493343 57.798054 1.576380 13.212380 -0.049448 0.213710 -0.154710 0.456240 18.696388 -11.535412 1.554768 -11.446674 0.570790 -6.699054 1.150717 -9.300479 39.965216 -0.783975 -6.394975 2.215368 -0.207950 -0.145570 0.094170 -4.973356 0.875635 -7.911877 19.119476 5.089962 10.599180 -7.331784 6.981652 4.292355 3.608722 0.031380 -11.133862 -4.166481 1.872453 69.045391 -3.567850 7.134220 7.140430 -13.315132 9.090361 3.538406 -56.873180 12.603405 -8.240052 -91.773984 -50.664039 43.279001 -3.356482 3.416909 0.625440 -0.089960 0.168160 -0.054040 5.101918 -7.628030 5.895773 73.217876 -12.958605 -22.173366 19.867242 36.498114 2.898524 2.254339 -1.166246 -0.109220 -0.022590 -0.042570 -0.319250 
6.187840 16.653830 -1.088040 -2.822865 -30.794458 -10.891542 -14.763308 11.446424 5.348019 24.143356 -2.807284 -28.216701 -19.710592 27.582653 55.594813 1.672947 13.442578 -0.103043 0.239380 -0.121510 0.469740 18.754258 -11.518092 1.418799 -12.983465 0.365380 -7.439581 0.975472 -9.301301 39.315951 -0.752814 -6.293729 2.228139 -0.188660 -0.157030 0.105310 -5.180753 1.080387 -7.951521 21.156725 4.419079 10.568794 -9.792806 6.449784 4.409932 4.078433 -0.174950 -11.026568 -4.588040 2.096776 68.834575 -4.052860 7.105140 6.197920 -14.865808 8.199467 3.121887 -54.838510 10.844227 -6.877819 -93.483731 -51.734266 45.844050 -3.389315 3.428636 0.619820 -0.093500 0.178060 -0.049710 5.486732 -6.975839 6.227814 73.183434 -12.588842 -21.950831 20.490558 38.591611 3.397158 2.229635 -1.221299 -0.094510 -0.027670 -0.052780 -0.315740 
6.293730 16.646740 -1.083160 -1.779260 -30.164862 -10.997314 -14.739806 11.293718 5.521297 24.811763 -3.085873 -27.757275 -23.439824 29.038077 53.628873 1.721683 13.563547 -0.134208 0.267220 -0.085590 0.491600 18.791335 -11.506606 1.298045 -14.497069 0.154321 -8.365737 0.540799 -9.276394 39.141285 -0.731820 -6.228872 2.225655 -0.162670 -0.174820 0.107840 -5.299476 1.156572 -7.971402 22.861820 3.479773 10.802350 -11.853073 5.703846 4.703986 4.536893 -0.550366 -10.970143 -5.579824 2.579315 68.822720 -4.874810 7.112180 4.573700 -16.415748 6.972581 2.803079 -53.087825 8.796754 -5.674397 -94.734549 -53.160204 48.358803 -3.424909 3.411962 0.628080 -0.103040 0.190420 -0.054630 6.006729 -5.876097 6.505392 72.846358 -11.698179 -21.550472 20.431710 40.723744 3.739674 2.200098 -1.259129 -0.089710 -0.018200 -0.055950 -0.321830 
6.399070 16.645550 -1.080570 -0.686856 -29.402996 -11.018181 -14.720947 11.230544 5.606287 24.768253 -3.516481 -27.316356 -26.072458 29.828136 52.148662 1.746762 13.608468 -0.137844 0.273570 -0.080490 0.501260 18.812137 -11.506259 1.205758 -15.852924 -0.055111 -9.539757 -0.088466 -9.193539 39.199660 -0.703910 -6.176759 2.222820 -0.152130 -0.178950 0.106360 -5.355622 1.141022 -7.971360 24.190407 2.553699 10.918131 -13.600361 4.970060 5.025529 4.951505 -0.879378 -11.176206 -6.606890 3.097489 68.868443 -5.666080 7.189080 3.830820 -17.259836 5.526447 2.777233 -51.764521 6.630957 -4.478329 -96.079487 -54.935821 51.297381 -3.465570 3.386310 0.635070 -0.104630 0.190900 -0.060220 5.988907 -4.500785 6.955752 72.887256 -10.705659 -21.254004 19.888173 42.849383 3.926972 2.169125 -1.294495 -0.096400 -0.006990 -0.050530 -0.328960 
6.503800 16.645820 -1.081010 0.455905 -28.662164 -11.087031 -14.704407 11.246288 5.605828 24.071811 -3.997956 -26.620560 -28.019336 30.059398 50.703935 1.744952 13.561147 -0.110544 0.272650 -0.081350 0.500610 18.819872 -11.526771 1.135146 -17.000916 -0.240971 -10.758219 -1.104254 -8.923523 39.449074 -0.677143 -6.130898 2.222682 -0.143020 -0.169070 0.106520 -5.367144 1.061993 -7.939413 25.125093 1.610419 11.050195 -14.720080 4.209888 5.648527 5.234401 -1.222776 -11.418008 -7.733826 3.644425 68.527876 -6.498990 7.199060 3.147120 -17.859228 3.809771 2.960119 -50.769772 4.649517 -3.668441 -97.082678 -56.501334 53.580903 -3.510840 3.351916 0.637820 -0.097850 0.186240 -0.060490 6.069139 -2.819262 7.306014 72.446393 -9.430934 -20.914307 18.694125 44.904699 3.837619 2.137411 -1.324767 -0.107340 0.012030 -0.040770 -0.331320 
6.609630 16.643610 -1.081200 1.446961 -27.807068 -11.005097 -14.679950 11.293919 5.531270 22.906864 -4.550316 -25.795241 -29.068044 29.744956 49.546020 1.731048 13.421215 -0.062752 0.293780 -0.053540 0.512970 18.829424 -11.564650 1.098407 -18.165344 -0.496955 -11.908215 -1.785426 -8.798239 39.527742 -0.664952 -6.098772 2.210161 -0.125350 -0.179340 0.115770 -5.388192 0.995348 -7.879440 26.233862 0.618439 11.083606 -15.865851 3.377344 6.347602 5.566111 -1.628289 -11.552560 -8.921858 4.144167 67.641581 -7.527520 7.221840 1.998490 -17.979508 2.499691 3.082383 -50.123230 2.501634 -2.747796 -98.090649 -58.019811 55.943132 -3.535691 3.340172 0.633130 -0.100670 0.195500 -0.054660 5.577783 -1.515235 7.570562 72.048233 -7.933731 -20.299819 17.752490 46.546190 3.750202 2.118935 -1.376103 -0.097280 0.011970 -0.049990 -0.328420 
6.713640 16.645140 -1.087240 2.544285 -26.809921 -10.788877 -14.657045 11.379343 5.401464 21.188295 -5.185510 -25.014822 -29.280842 28.905981 48.571066 1.680294 13.207124 0.003267 0.296230 -0.047380 0.508750 18.835476 -11.608263 1.077524 -19.375966 -0.823975 -13.052089 -2.419203 -8.642661 39.221926 -0.626876 -6.031383 2.215024 -0.114130 -0.173360 0.118150 -5.393643 0.889678 -7.793610 27.051743 -0.290786 10.941528 -16.698153 2.542188 7.085550 5.724718 -2.136091 -11.590748 -10.404390 4.764208 66.295062 -8.254780 7.077860 1.274760 -17.714585 1.477466 3.149154 -49.807365 0.093287 -1.663164 -98.384356 -59.447795 57.716854 -3.574398 3.321519 0.619080 -0.091600 0.182720 -0.057460 5.057112 -0.475201 7.711737 71.728345 -6.439459 -19.774056 15.925111 48.353116 3.361264 2.092880 -1.418074 -0.097200 0.014020 -0.043350 -0.326480 
6.819630 16.649940 -1.089220 3.484312 -25.970191 -10.241883 -14.636928 11.443251 5.259197 19.509317 -5.662401 -24.300135 -29.307439 27.958164 47.479412 1.634069 12.949232 0.091369 0.301540 -0.041310 0.501450 18.847636 -11.638989 1.077445 -20.448303 -1.136162 -14.328043 -2.881876 -8.492961 38.600637 -0.583737 -5.932133 2.229472 -0.105740 -0.160630 0.128900 -5.420308 0.827490 -7.691549 28.279524 -1.033003 10.452788 -17.584895 1.846302 7.825514 5.841588 -2.729375 -11.622413 -12.060699 5.311166 64.579683 -8.794630 6.704210 1.014310 -17.015908 0.731649 3.181396 -49.945114 -2.542805 -0.310773 -98.053457 -60.648810 58.851442 -3.606694 3.320237 0.593790 -0.078700 0.168020 -0.049680 4.171442 0.379279 7.881746 71.652611 -5.034897 -19.284517 13.749585 50.271506 2.794682 2.068842 -1.477954 -0.089120 0.007230 -0.044630 -0.315400 
6.926520 16.659830 -1.096460 4.543077 -25.034955 -9.831490 -14.623800 11.541508 5.095660 17.534482 -6.137179 -23.468779 -28.865743 26.761160 46.502209 1.561526 12.625361 0.194369 0.313400 -0.021820 0.505260 18.848840 -11.669741 1.091043 -21.666017 -1.510663 -15.345460 -3.246721 -8.324092 37.557036 -0.540942 -5.788748 2.259642 -0.088260 -0.161050 0.129300 -5.408118 0.715960 -7.604120 29.093222 -1.694021 10.181571 -17.867019 1.221550 8.616442 5.905410 -3.165646 -11.691460 -13.415580 5.508819 63.239127 -9.680690 6.291780 0.302480 -16.088422 -0.111740 3.221698 -50.395245 -5.423806 1.150617 -96.447310 -61.436702 58.499206 -3.625206 3.310425 0.575680 -0.073730 0.162210 -0.044800 3.205354 1.267263 8.031502 71.485986 -3.589633 -18.948702 10.768328 52.451393 1.797970 2.039760 -1.522974 -0.084620 0.010880 -0.050790 -0.310020 
